#!OML:ASF F:\VICON\USERDATA\INSTALL\rory3\rory3.ASF
:FULLY-SPECIFIED
:DEGREES
4855
root -1.69116 17.2969 -0.0352341 13.5313 37.9576 -2.99836
lowerback 16.1452 7.95868 1.4711
upperback 5.23716 10.5801 -5.23896
thorax -2.02359 5.40139 -8.14971
lowerneck -18.1383 -13.4119 -17.6485
upperneck 12.3718 -16.7361 16.1441
head 9.82448 -7.33066 5.78013
rclavicle 4.59193e-014 7.15625e-015
rhumerus 5.38985 -18.7085 -20.9772
rradius 45.2106
rwrist 18.3193
rhand -28.5144 0.268213
rfingers 7.12502
rthumb -1.88274 -29.7032
lclavicle 4.59193e-014 7.15625e-015
lhumerus -50.0317 8.27438 54.7241
lradius 116.282
lwrist -14.0488
lhand -26.4957 9.79222
lfingers 7.12502
lthumb 0.0670143 39.772
rfemur -26.4085 -27.2692 23.393
rtibia 42.4549
rfoot -29.5543 -12.6426
rtoes -0.0571849
lfemur -43.473 -13.2024 -8.52928
ltibia 40.9933
lfoot -12.1945 -18.3694
ltoes -13.7296
4856
root -1.67946 17.2976 -0.0333378 13.205 37.4137 -3.11778
lowerback 15.9175 7.84103 1.46971
upperback 5.08281 10.4222 -5.24284
thorax -2.09243 5.31474 -8.10915
lowerneck -18.1114 -13.3668 -16.8703
upperneck 12.2075 -16.7597 15.6658
head 9.64303 -7.35223 5.48893
rclavicle 8.2595e-014 -1.0138e-014
rhumerus 4.62636 -16.9782 -21.5231
rradius 48.2098
rwrist 18.041
rhand -28.5536 -0.360305
rfingers 7.12502
rthumb -1.92058 -30.3314
lclavicle 8.2595e-014 -1.0138e-014
lhumerus -49.4079 7.68629 54.7712
lradius 116.317
lwrist -14.286
lhand -26.4946 10.0277
lfingers 7.12502
lthumb 0.0680132 40.0075
rfemur -25.9975 -26.9014 23.2222
rtibia 42.2633
rfoot -29.496 -12.6314
rtoes -0.401742
lfemur -43.0181 -12.9682 -8.58822
ltibia 41.0203
lfoot -12.418 -18.1063
ltoes -14.384
4857
root -1.66738 17.3033 -0.028546 12.8044 36.7922 -3.21735
lowerback 15.534 7.74892 1.37356
upperback 5.092 10.2961 -5.17816
thorax -1.93029 5.25429 -7.90583
lowerneck -18.2947 -13.2553 -16.445
upperneck 12.1925 -16.6575 15.5306
head 9.59975 -7.28804 5.39164
rclavicle -4.7112e-014 2.94201e-014
rhumerus 3.95301 -15.5694 -22.1902
rradius 51.2521
rwrist 18.244
rhand -28.6347 -0.658984
rfingers 7.12502
rthumb -1.99894 -30.6294
lclavicle -4.7112e-014 2.94201e-014
lhumerus -48.6654 7.30245 54.9483
lradius 116.346
lwrist -14.3004
lhand -26.2785 9.98236
lfingers 7.12502
lthumb 0.276791 39.9619
rfemur -25.5013 -26.5048 23.0098
rtibia 42.0724
rfoot -29.2824 -12.7456
rtoes -1.27172
lfemur -42.4166 -12.7144 -8.67368
ltibia 41.0294
lfoot -12.6256 -17.8335
ltoes -14.4663
4858
root -1.65395 17.3081 -0.0286035 12.4161 36.1707 -3.36536
lowerback 15.3317 7.63728 1.41501
upperback 4.94198 10.1529 -5.11409
thorax -2.00996 5.1736 -7.8232
lowerneck -18.3767 -13.1181 -16.4909
upperneck 12.3479 -16.5019 15.7182
head 9.6672 -7.1936 5.49493
rclavicle -2.18663e-015 -4.05521e-014
rhumerus 3.09342 -14.0917 -22.7681
rradius 54.293
rwrist 18.6744
rhand -28.4553 -0.292346
rfingers 7.12502
rthumb -1.82564 -30.2643
lclavicle -2.18663e-015 -4.05521e-014
lhumerus -48.1329 6.60933 55.2825
lradius 116.352
lwrist -14.3274
lhand -26.8599 10.7328
lfingers 7.12502
lthumb -0.284805 40.7123
rfemur -25.0485 -26.1069 22.8265
rtibia 41.8635
rfoot -29.0933 -12.6878
rtoes -1.15548
lfemur -41.8444 -12.4215 -8.73724
ltibia 41.0542
lfoot -13.0327 -17.4992
ltoes -15.0582
4859
root -1.64082 17.3191 -0.0244822 12.2248 35.4251 -3.23468
lowerback 15.1954 7.52749 1.20797
upperback 4.70316 9.96696 -5.15576
thorax -2.24685 5.0637 -7.73343
lowerneck -18.4596 -12.9239 -16.4079
upperneck 12.5217 -16.2938 15.8603
head 9.71587 -7.07245 5.57449
rclavicle 1.26427e-013 -6.91771e-014
rhumerus 2.24043 -12.4054 -23.5142
rradius 57.4904
rwrist 18.5956
rhand -28.4615 -0.293973
rfingers 7.12502
rthumb -1.83164 -30.2659
lclavicle 1.26427e-013 -6.91771e-014
lhumerus -47.7167 5.90074 55.6232
lradius 116.415
lwrist -14.3357
lhand -27.4122 11.5229
lfingers 7.12502
lthumb -0.818189 41.5011
rfemur -24.6373 -25.675 22.4156
rtibia 41.6307
rfoot -28.7955 -12.802
rtoes -1.67394
lfemur -41.2509 -12.1265 -9.01401
ltibia 41.0704
lfoot -13.3518 -17.1524
ltoes -15.1464
4860
root -1.62928 17.3281 -0.0198122 12.0159 34.7028 -3.47982
lowerback 14.8245 7.37979 1.25102
upperback 4.4028 9.77172 -5.16503
thorax -2.38838 4.95267 -7.71097
lowerneck -18.6206 -12.6783 -16.1404
upperneck 12.7344 -16.0596 16.0136
head 9.77286 -6.92415 5.63323
rclavicle 1.10127e-013 7.15625e-015
rhumerus 1.36724 -10.6575 -24.508
rradius 60.8235
rwrist 18.348
rhand -28.4773 -0.636164
rfingers 7.12502
rthumb -1.84689 -30.6079
lclavicle 1.10127e-013 7.15625e-015
lhumerus -47.3043 5.36025 55.5875
lradius 116.421
lwrist -14.5141
lhand -27.1859 11.4615
lfingers 7.12502
lthumb -0.599644 41.4404
rfemur -24.493 -25.1624 22.4826
rtibia 41.3837
rfoot -28.5784 -12.8688
rtoes -1.83592
lfemur -40.9063 -11.7698 -8.87311
ltibia 41.0746
lfoot -13.6109 -16.7835
ltoes -15.6349
4861
root -1.61622 17.3327 -0.0152967 11.8206 33.8129 -3.96279
lowerback 14.2153 7.23873 1.47339
upperback 4.0762 9.61511 -5.14058
thorax -2.40063 4.86518 -7.72045
lowerneck -18.6468 -12.4837 -16.0108
upperneck 12.891 -15.898 16.2791
head 9.82325 -6.81361 5.74318
rclavicle 1.59028e-013 -5.56597e-015
rhumerus 0.722747 -8.98628 -25.6611
rradius 64.0538
rwrist 18.3628
rhand -28.1512 -0.960971
rfingers 7.12502
rthumb -1.53198 -30.9352
lclavicle 1.59028e-013 -5.56597e-015
lhumerus -47.0354 4.96133 55.4543
lradius 116.433
lwrist -14.82
lhand -26.9147 10.9816
lfingers 7.12502
lthumb -0.337721 40.9611
rfemur -24.5352 -24.4399 22.7872
rtibia 41.1605
rfoot -28.4503 -12.7662
rtoes -1.43851
lfemur -40.6582 -11.2469 -8.48804
ltibia 40.9783
lfoot -13.6364 -16.4455
ltoes -14.9705
